<?xml version="1.0" encoding="utf-8"?>
<!-- Generator: Adobe Illustrator 24.1.2, SVG Export Plug-In . SVG Version: 6.00 Build 0)  -->
<svg version="1.1" id="Layer_1" xmlns="http://www.w3.org/2000/svg" xmlns:xlink="http://www.w3.org/1999/xlink" x="0px" y="0px"
	 viewBox="0 0 250 250" style="enable-background:new 0 0 250 250;" xml:space="preserve">
<style type="text/css">
	.st0{fill:none;stroke:#000000;stroke-width:4;stroke-miterlimit:10;}
	.st1{stroke:#000000;stroke-miterlimit:10;}
	.st2{fill:none;stroke:#000000;stroke-width:10;stroke-miterlimit:10;}
</style>
<circle class="st0" cx="118.1" cy="138.04" r="63.76"/>
<g>
	<path class="st1" d="M96.81,121.06h12.33v1.47c-1.39,0.07-2.69,0.86-3.91,2.37c-1.21,1.51-2.42,3.77-3.61,6.78l-11.08,27.85h-1.47
		l-13.65-32.51c-0.78-1.98-1.44-3.21-1.98-3.68c-0.53-0.47-1.59-0.74-3.16-0.82v-1.47H86.4v1.47h-0.45c-1.19,0-2.11,0.21-2.76,0.64
		c-0.64,0.43-0.96,1.02-0.96,1.77c0-0.05,0.06,0.25,0.17,0.91c0.12,0.66,0.24,1.16,0.39,1.5l9.74,23.31l7.01-17.61
		c1-2.44,1.5-4.43,1.5-5.97c0-1.45-0.37-2.57-1.11-3.36s-1.78-1.19-3.12-1.19V121.06z M76.26,126.65l13.14,31.44
		c0.52-0.96,0.78-1.65,0.78-2.06c0-0.43-0.26-1.19-0.78-2.3l-11.21-26.86c-0.48-1.16-0.9-2.04-1.26-2.65s-0.81-1.06-1.36-1.35
		s-1.33-0.48-2.33-0.55c0.66,0.25,1.19,0.68,1.58,1.28C75.21,124.21,75.69,125.22,76.26,126.65z M104.81,122.53h-5.27
		c1.43,0.82,2.19,2.23,2.3,4.23C102.62,124.85,103.61,123.44,104.81,122.53z"/>
	<path class="st1" d="M112.27,121.06h17.82v1.47c-1.68,0.04-2.97,0.25-3.89,0.66c-0.92,0.4-1.41,1.21-1.49,2.42
		c-0.04,0.75-0.07,1.34-0.11,1.78s-0.05,0.63-0.05,0.58v24.67c0,1.05,0.11,1.89,0.33,2.52s0.54,1.07,0.95,1.34
		c0.41,0.27,0.88,0.45,1.42,0.55c0.53,0.1,1.48,0.2,2.84,0.31v1.47h-17.82v-1.47c1.59-0.02,2.79-0.18,3.6-0.49
		c0.81-0.31,1.34-0.81,1.58-1.5c0.24-0.69,0.36-1.78,0.36-3.28V128.2c0-1.43-0.07-2.48-0.2-3.17c-0.13-0.69-0.39-1.18-0.76-1.49
		c-0.37-0.3-0.88-0.51-1.51-0.63c-0.63-0.12-1.66-0.24-3.06-0.36v-1.49H112.27z M118.69,127.4v26.65c0,0.91-0.16,1.58-0.48,2.01
		s-0.87,0.86-1.66,1.28c1.16-0.04,2.1-0.23,2.81-0.57c0.71-0.35,1.07-1.11,1.07-2.29v-28.39c0-1.21-0.25-2.12-0.75-2.73
		s-1.49-0.88-2.97-0.83c1.36,0.71,2.03,2.07,2.03,4.07c0,0.14,0,0.28-0.01,0.4C118.73,127.12,118.71,127.26,118.69,127.4z"/>
	<path class="st1" d="M146.49,141.66v11.35c0,1.07,0.16,1.9,0.47,2.47c0.31,0.58,0.74,0.99,1.27,1.23c0.53,0.24,1.29,0.4,2.27,0.47
		c0.98,0.07,1.89,0.13,2.73,0.16v1.47h-19.45v-1.47c1.45-0.04,2.53-0.12,3.25-0.24c0.72-0.12,1.29-0.36,1.71-0.72
		c0.42-0.36,0.7-0.82,0.86-1.38c0.15-0.56,0.23-1.33,0.23-2.31v-23.57c0-1.96-0.08-3.35-0.25-4.17s-0.68-1.43-1.53-1.82
		s-2.27-0.59-4.27-0.59v-1.47h18.41c0.82,0,2.78,0.14,5.89,0.43c1,0.09,2.06,0.38,3.2,0.88c1.13,0.5,2.19,1.18,3.18,2.05
		c0.99,0.87,1.79,1.89,2.39,3.08c0.61,1.19,0.91,2.48,0.91,3.87c0,1.55-0.31,2.95-0.92,4.2c-0.62,1.25-1.56,2.33-2.84,3.24
		s-2.88,1.61-4.82,2.11c-1.93,0.5-4.19,0.75-6.76,0.75h-5.93V141.66z M140.69,128.79v25.15c0,1.7-0.65,2.83-1.95,3.4h0.7
		c1.98,0,2.97-0.94,2.97-2.81v-24.48c0-2.19-0.01-3.63-0.04-4.31s-0.14-1.26-0.35-1.74c-0.21-0.48-0.57-0.83-1.1-1.06
		c-0.53-0.22-1.33-0.38-2.42-0.47c0.71,0.34,1.21,0.72,1.5,1.15s0.47,1.03,0.56,1.82C140.64,126.23,140.69,127.35,140.69,128.79z
		 M146.49,140.19h3.75c2.26,0,4.15-0.27,5.65-0.82c1.5-0.54,2.65-1.46,3.45-2.76c0.8-1.29,1.2-3.03,1.2-5.2
		c0-3.26-1.1-5.71-3.29-7.33c-0.87-0.64-1.76-1.06-2.65-1.26c-0.89-0.2-2-0.29-3.32-0.29c-1.52,0-2.61,0.21-3.28,0.64
		s-1.09,1.07-1.26,1.93s-0.25,2.12-0.25,3.8V140.19z M156.74,139.9c2.14-0.32,3.74-1.17,4.79-2.54c1.05-1.37,1.58-3.32,1.58-5.83
		c0-2.66-0.53-4.65-1.6-5.98s-2.68-2.22-4.82-2.66c1.02,0.52,1.88,1.19,2.59,2.03c0.71,0.84,1.25,1.82,1.61,2.94
		s0.53,2.34,0.53,3.67C161.42,135.77,159.86,138.56,156.74,139.9z"/>
</g>
<polygon points="112.57,206.38 114.48,212.46 120.65,212.46 115.66,216.22 117.56,222.31 112.57,218.55 107.58,222.31 
	109.49,216.22 104.5,212.46 110.67,212.46 "/>
<ellipse class="st2" cx="116.93" cy="134.99" rx="94.1" ry="93.51"/>
<polygon points="110.42,53.76 112.32,59.85 118.49,59.85 113.5,63.61 115.41,69.7 110.42,65.93 105.43,69.7 107.33,63.61 
	102.34,59.85 108.51,59.85 "/>
<polygon points="40.72,130.07 42.62,136.16 48.79,136.16 43.8,139.92 45.71,146 40.72,142.24 35.73,146 37.63,139.92 32.64,136.16 
	38.81,136.16 "/>
<polygon points="194.66,130.07 196.57,136.16 202.73,136.16 197.74,139.92 199.65,146 194.66,142.24 189.67,146 191.58,139.92 
	186.58,136.16 192.75,136.16 "/>
<polygon points="40.72,115.46 42.62,121.55 48.79,121.55 43.8,125.31 45.71,131.39 40.72,127.63 35.73,131.39 37.63,125.31 
	32.64,121.55 38.81,121.55 "/>
<polygon points="194.66,115.46 196.57,121.55 202.73,121.55 197.74,125.31 199.65,131.39 194.66,127.63 189.67,131.39 
	191.58,125.31 186.58,121.55 192.75,121.55 "/>
<polygon points="129.02,206.38 130.93,212.46 137.1,212.46 132.11,216.22 134.01,222.31 129.02,218.55 124.03,222.31 125.94,216.22 
	120.95,212.46 127.12,212.46 "/>
<polygon points="126.87,53.76 128.77,59.85 134.94,59.85 129.95,63.61 131.86,69.7 126.87,65.93 121.88,69.7 123.78,63.61 
	118.79,59.85 124.96,59.85 "/>
</svg>
